<?xml version="1.0"?><svg version="1.2" baseProfile="tiny-ps" viewBox="0 0 300 300" xmlns="http://www.w3.org/2000/svg" xmlns:xlink="http://www.w3.org/1999/xlink"><title>webinc white background</title><g><g fill="#fefefe" transform="matrix(.1 0 0 -.1 0 300)"><path d="M0 1500V0h3000v3000H0V1500z"/></g><g fill="#cecece" transform="matrix(.1 0 0 -.1 0 300)"><path d="M1600 1775v-675h13c6 1 68 34 137 74l125 74 3 529 2 528-37 20c-21 11-78 44-127 73-50 28-96 52-103 52h-13v-675zm-650 0c0-162 2-295 4-295 6 0 249 140 264 152l12 10v276l-50 31c-28 17-52 31-55 31-2 0-38 20-78 45-41 25-80 45-86 45h-11v-295zm350-279c-69-40-230-133-358-207l-232-133 3-11c4-11 246-154 263-154 5-1 62 29 125 65 62 37 130 75 149 86s70 41 113 65l77 45v318h-7c-5 0-64-33-133-74zm740-195v-139l-137-79c-76-44-227-131-335-194l-198-114v-10c0-10 233-148 260-153l16-3 229 132c127 73 277 160 335 194l105 61v298l-125 72c-69 40-131 73-137 73l-13 1v-139z"/></g><g fill="#9e9e9e" transform="matrix(.1 0 0 -.1 0 300)"><path d="M1610 1774v-676l37 22c20 12 81 47 135 78l98 56v1044l-131 76c-71 42-132 76-135 76-2 0-4-304-4-676zm-660 5v-290l13 3c8 2 69 35 136 73l121 70-2 145-3 144-125 72c-69 40-128 73-132 73l-8 1v-291zm131-414c-194-112-358-208-363-213l-9-9 135-77 134-77 231 133 230 133 1 158c0 86-1 157-2 157-2 0-162-92-357-205zm969-63v-140l-157-90c-87-50-238-137-337-194l-178-104 1-9c1-6 58-43 127-84l126-73 42 22c22 13 93 53 156 90s199 115 303 175l187 108v283l-102 59c-57 33-118 68-135 78l-33 19v-140z"/></g><g fill="#696969" transform="matrix(.1 0 0 -.1 0 300)"><path d="M1610 1781v-671h8c4 0 63 33 132 73l125 72 3 520 2 521-97 56c-54 30-115 66-135 78l-38 22v-671zm-654 281c-4-3-6-133-6-289v-283h8c4 0 63 33 132 73l125 73 3 141 3 140-130 75c-72 42-132 73-135 70zm112-706c-191-110-347-204-348-208 0-8 224-138 250-145l18-5 159 92c87 51 188 110 226 131l67 40v299l-12-1c-7-1-169-92-360-203zm980-62-3-137-332-191c-183-106-335-195-338-198-6-6 243-151 260-151 9 0 343 189 585 332l95 56 3 137 3 136-28 19c-38 26-228 133-236 133-3 0-8-61-9-136z"/></g><g fill="#3e3e3e" transform="matrix(.1 0 0 -.1 0 300)"><path d="M1610 1774v-666l8 4c5 2 63 35 130 73l122 70v1044l-124 70c-68 39-126 71-130 71h-6v-666zm-650 2v-285l128 74 127 74 3 138 2 138-121 70c-67 39-126 72-131 73l-8 4v-286zm133-410c-182-106-341-199-353-207l-21-14 126-73 127-74 15 6c9 4 114 63 235 133l218 126v297h-7c-5-1-157-88-340-194zm957-73v-138l-332-190c-182-105-331-194-330-199 0-5 55-41 122-80l122-70 47 25c25 14 154 87 286 164 132 76 264 152 293 168l52 29v284l-121 70c-67 38-126 71-130 72l-9 4v-139z"/></g><g fill="#161616" transform="matrix(.1 0 0 -.1 0 300)"><path d="M1620 1775c0-360 2-655 5-655 2 0 57 31 122 69l118 68 2 519 3 519-118 68c-65 37-121 67-125 67h-7v-655zm-660 6c0-155 2-281 4-281s57 31 122 69l119 69 3 139 3 140-88 50c-49 28-105 60-125 73l-38 22v-281zm345-298c-71-41-148-85-170-98-243-138-382-220-393-230l-13-12 88-50c48-28 104-60 123-71l36-21 84 47c225 128 356 205 368 216l13 12-3 141-3 141-130-75zm753-195-3-133-125-72c-69-40-221-128-337-195l-213-121 126-75 125-74 12 6c7 3 158 90 337 193l325 188 3 143 3 142h-10c-5 0-59 29-120 65-60 36-112 65-115 65s-7-60-8-132z"/></g></g></svg>