<?xml version="1.0"?><svg version="1.2" baseProfile="tiny-ps" viewBox="0 0 300 300" xmlns="http://www.w3.org/2000/svg" xmlns:xlink="http://www.w3.org/1999/xlink"><title>webinc</title><g><g fill="#161616" transform="matrix(.1 0 0 -.1 0 300)"><path d="M1590 1779v-691l23 14c12 8 73 43 135 78l112 64v1071l-83 47c-45 26-106 61-134 78l-53 30v-691zm-670 5v-294h8c4 0 63 33 132 73l125 72 2 145 3 145-135 77-135 77v-295zm118-433c-197-114-360-210-363-213-6-6 249-158 265-158 6 0 74 37 152 83 79 46 182 106 230 133l87 49 1 158v157l-7-1c-5 0-169-94-365-208zm1000-63-3-143-339-195c-187-108-341-200-343-205l-3-10 123-70c67-38 128-71 135-73l12-4 345 199 344 198 1 146v146l-127 73c-71 40-131 75-135 77l-7 4-3-143z"/></g></g></svg>